 <svg version="1.0" xmlns="http://www.w3.org/2000/svg" width="700.000000pt" height="350.000000pt" viewBox="0 0 700.000000 350.000000" preserveAspectRatio="xMidYMid meet">
<metadata>
Created by potrace 1.12, written by Peter Selinger 2001-2015
</metadata>
<g transform="translate(0.000000,350.000000) scale(0.100000,-0.100000)" fill="#000000" stroke="none">
<path d="M3365 3490 c-11 -5 -36 -9 -56 -9 -54 -1 -238 -57 -337 -102 -423
-195 -732 -655 -732 -1091 0 -102 31 -137 80 -88 17 17 20 33 20 100 0 128 48
308 123 455 122 242 349 452 602 557 84 34 195 61 316 76 113 14 139 14 250 0
68 -9 158 -25 199 -37 366 -107 666 -402 783 -769 27 -83 43 -171 53 -295 5
-63 10 -80 27 -92 28 -19 42 -19 62 1 29 30 5 245 -46 411 -141 456 -537 801
-1003 874 -92 15 -315 21 -341 9z"></path>
<path d="M3386 3189 c-107 -12 -192 -37 -302 -90 -262 -124 -450 -356 -521
-642 -22 -89 -24 -116 -20 -246 5 -168 21 -248 75 -371 130 -293 386 -496 713
-564 83 -18 248 -21 312 -6 23 5 74 16 112 25 148 35 351 157 463 279 99 109
173 243 223 406 21 67 24 95 23 250 0 163 -2 181 -28 264 -54 173 -135 306
-261 430 -152 150 -345 241 -560 266 -100 11 -129 11 -229 -1z m150 -113 c18
-14 19 -30 19 -446 0 -470 3 -450 -57 -450 -17 0 -31 7 -38 19 -6 13 -10 169
-10 440 l0 420 22 15 c28 20 39 20 64 2z"></path>
<path d="M2915 968 c-3 -7 -4 -128 -3 -268 l3 -255 37 -3 c32 -3 38 0 43 20 3
13 4 133 3 268 l-3 245 -38 3 c-24 2 -39 -1 -42 -10z"></path>
<path d="M4004 966 c-3 -8 -4 -25 -2 -38 3 -20 9 -23 43 -23 39 0 40 1 40 35
0 33 -2 35 -38 38 -26 2 -39 -1 -43 -12z"></path>
<path d="M4507 974 c-4 -4 -7 -103 -7 -221 0 -194 -2 -214 -17 -221 -10 -4
-57 -7 -104 -7 -112 0 -119 6 -119 97 0 105 3 108 111 108 l90 0 -3 43 -3 42
-75 3 c-93 4 -141 -9 -174 -49 -24 -29 -26 -37 -26 -134 0 -60 5 -115 12 -130
21 -47 74 -65 185 -64 112 1 158 14 187 53 20 26 21 41 21 254 l0 227 -35 3
c-20 2 -39 0 -43 -4z"></path>
<path d="M1527 933 c-4 -3 -7 -21 -7 -39 l0 -33 98 -3 97 -3 3 -200 c2 -144 6
-201 15 -207 11 -7 64 -11 69 -5 1 1 4 94 7 207 l6 205 98 3 97 3 0 39 0 40
-238 0 c-131 0 -242 -3 -245 -7z"></path>
<path d="M3429 923 c-11 -12 -15 -67 -17 -226 -2 -115 -1 -220 3 -234 5 -21
11 -24 43 -21 l37 3 5 205 5 205 149 3 c101 2 153 -1 162 -9 24 -19 18 -94
-10 -126 -24 -27 -27 -28 -145 -31 l-121 -4 0 -39 c0 -36 2 -39 29 -39 31 0
49 -12 159 -107 70 -61 75 -63 127 -63 30 0 55 4 55 9 0 5 -33 38 -74 73 -41
35 -75 68 -75 74 -1 6 13 14 29 18 17 3 49 23 72 44 41 39 41 39 46 125 l4 87
-35 35 -35 35 -200 0 c-173 0 -201 -2 -213 -17z"></path>
<path d="M2087 813 c-4 -3 -7 -21 -7 -40 l0 -33 98 0 c129 0 135 -5 140 -103
4 -66 2 -77 -17 -96 -18 -18 -33 -21 -110 -21 -91 0 -121 11 -121 45 0 33 30
45 116 45 l84 0 0 41 0 41 -105 -4 c-103 -3 -106 -4 -138 -36 -28 -28 -32 -39
-32 -86 0 -96 50 -126 202 -126 162 1 195 30 201 180 7 160 -34 199 -209 200
-53 0 -99 -3 -102 -7z"></path>
<path d="M2534 806 c-69 -31 -86 -110 -35 -165 29 -31 30 -31 128 -31 105 0
123 -7 123 -47 0 -35 -38 -44 -164 -42 l-111 1 0 -38 0 -39 120 -3 c66 -2 136
2 156 7 74 22 107 99 75 174 -21 51 -62 67 -168 67 -85 0 -121 11 -103 29 6 6
62 12 125 13 l115 3 0 40 0 40 -115 2 c-80 2 -124 -2 -146 -11z"></path>
<path d="M3147 768 c-35 -29 -76 -62 -90 -73 -50 -37 -38 -62 73 -164 98 -89
101 -91 150 -91 28 0 50 3 50 7 0 4 -43 51 -96 104 l-96 96 23 22 c13 12 53
45 90 74 91 70 93 77 20 77 -57 0 -62 -2 -124 -52z"></path>
<path d="M4012 808 c-13 -13 -18 -321 -6 -352 6 -16 39 -21 68 -10 14 5 16 31
16 184 0 153 -2 179 -16 184 -25 9 -49 7 -62 -6z"></path>
<path d="M4740 798 c-54 -28 -68 -63 -69 -168 0 -106 14 -140 69 -167 35 -18
61 -23 126 -23 88 0 94 4 94 56 0 23 -2 24 -83 24 -115 0 -122 6 -122 110 0
103 8 110 114 110 98 0 120 -7 128 -38 10 -40 -17 -52 -114 -52 l-83 0 0 -40
0 -40 91 0 c111 0 155 17 176 69 18 43 12 105 -14 133 -31 36 -77 48 -176 48
-76 0 -100 -4 -137 -22z"></path>
<path d="M5225 805 c-65 -28 -70 -41 -73 -212 l-3 -154 38 3 38 3 3 129 c1 73
7 135 13 143 7 8 47 13 122 15 121 3 127 7 113 64 -6 24 -8 24 -114 23 -65 0
-119 -6 -137 -14z"></path>
</g>
</svg>